<?xml version="1.0" encoding="UTF-8" standalone="no"?>
<!DOCTYPE svg PUBLIC "-//W3C//DTD SVG 1.1//EN" "http://www.w3.org/Graphics/SVG/1.1/DTD/svg11.dtd">
<!-- Generated by graphviz version 2.40.1 (20161225.0304)
 -->
<!-- Title: %0 Pages: 1 -->
<svg width="508pt" height="310pt" viewBox="0.00 0.00 508.47 310.40" xmlns="http://www.w3.org/2000/svg" xmlns:xlink="http://www.w3.org/1999/xlink">
<g id="graph0" class="graph" transform="scale(1 1) rotate(0) translate(4 306.4)">
<title>%0</title>
<polygon fill="#ffffff" stroke="transparent" points="-4,4 -4,-306.4 504.4695,-306.4 504.4695,4 -4,4"/>
<!-- 0 -->
<g id="node1" class="node">
<title>0</title>
<ellipse fill="none" stroke="#000000" cx="51.2703" cy="-18" rx="27" ry="18"/>
<text text-anchor="middle" x="51.2703" y="-13.8" font-family="Times,serif" font-size="14.00" fill="#000000">5</text>
</g>
<!-- 1 -->
<g id="node2" class="node">
<title>1</title>
<ellipse fill="none" stroke="#000000" cx="208.2703" cy="-195.6" rx="27" ry="18"/>
<text text-anchor="middle" x="208.2703" y="-191.4" font-family="Times,serif" font-size="14.00" fill="#000000">2</text>
</g>
<!-- 1&#45;&gt;0 -->
<g id="edge4" class="edge">
<title>1-&gt;0</title>
<path fill="none" stroke="#000000" d="M182.1394,-190.6457C131.8655,-180.4896 24.9613,-155.6464 6.0711,-124.8 -10.5981,-97.5802 10.7112,-63.1165 29.3541,-40.819"/>
<polygon fill="#000000" stroke="#000000" points="32.0773,-43.0219 36.0266,-33.1906 26.8084,-38.4132 32.0773,-43.0219"/>
<text text-anchor="middle" x="65.3699" y="-102.6" font-family="Times,serif" font-size="14.00" fill="#000000">ProviderToCustomer</text>
</g>
<!-- 2 -->
<g id="node3" class="node">
<title>2</title>
<ellipse fill="none" stroke="#000000" cx="160.2703" cy="-106.8" rx="27" ry="18"/>
<text text-anchor="middle" x="160.2703" y="-102.6" font-family="Times,serif" font-size="14.00" fill="#000000">4</text>
</g>
<!-- 1&#45;&gt;2 -->
<g id="edge3" class="edge">
<title>1-&gt;2</title>
<path fill="none" stroke="#000000" d="M181.6833,-191.8018C148.3317,-186.43 94.0453,-175.4676 82.0711,-159.6 77.5735,-153.6399 78.0439,-149.0875 82.0711,-142.8 82.7909,-141.6763 107.0596,-130.5958 128.3704,-121.0212"/>
<polygon fill="#000000" stroke="#000000" points="129.8571,-124.1904 137.5511,-116.9067 126.9942,-117.8026 129.8571,-124.1904"/>
<text text-anchor="middle" x="140.3699" y="-147" font-family="Times,serif" font-size="14.00" fill="#000000">ProviderToCustomer</text>
</g>
<!-- 5 -->
<g id="node6" class="node">
<title>5</title>
<ellipse fill="none" stroke="#000000" cx="245.2703" cy="-106.8" rx="27" ry="18"/>
<text text-anchor="middle" x="245.2703" y="-102.6" font-family="Times,serif" font-size="14.00" fill="#000000">3</text>
</g>
<!-- 1&#45;&gt;5 -->
<g id="edge5" class="edge">
<title>1-&gt;5</title>
<path fill="none" stroke="#000000" d="M205.183,-177.3012C204.2125,-166.8016 204.3881,-153.6016 208.9729,-142.8 211.3722,-137.1474 215.1258,-131.9207 219.3265,-127.3025"/>
<polygon fill="#000000" stroke="#000000" points="221.9526,-129.6299 226.6579,-120.1372 217.0599,-124.6238 221.9526,-129.6299"/>
<text text-anchor="middle" x="240.919" y="-147" font-family="Times,serif" font-size="14.00" fill="#000000">PearToPear</text>
</g>
<!-- 3 -->
<g id="node4" class="node">
<title>3</title>
<ellipse fill="none" stroke="#000000" cx="296.2703" cy="-18" rx="27" ry="18"/>
<text text-anchor="middle" x="296.2703" y="-13.8" font-family="Times,serif" font-size="14.00" fill="#000000">6</text>
</g>
<!-- 3&#45;&gt;5 -->
<g id="edge9" class="edge">
<title>3-&gt;5</title>
<path fill="none" stroke="#000000" d="M318.3382,-28.7652C336.1022,-38.9302 356.4164,-54.9411 345.2703,-70.8 337.5896,-81.7283 306.6117,-91.8101 281.1448,-98.5075"/>
<polygon fill="#000000" stroke="#000000" points="280.1939,-95.1378 271.3618,-100.9898 281.9155,-101.9228 280.1939,-95.1378"/>
<text text-anchor="middle" x="407.3699" y="-58.2" font-family="Times,serif" font-size="14.00" fill="#000000">CustomerToProvider</text>
</g>
<!-- 4 -->
<g id="node5" class="node">
<title>4</title>
<ellipse fill="none" stroke="#000000" cx="292.2703" cy="-284.4" rx="27" ry="18"/>
<text text-anchor="middle" x="292.2703" y="-280.2" font-family="Times,serif" font-size="14.00" fill="#000000">1</text>
</g>
<!-- 4&#45;&gt;1 -->
<g id="edge1" class="edge">
<title>4-&gt;1</title>
<path fill="none" stroke="#000000" d="M272.3005,-271.7361C263.1211,-265.3732 252.4402,-257.1603 244.0711,-248.4 236.3824,-240.3518 229.213,-230.4853 223.3401,-221.4685"/>
<polygon fill="#000000" stroke="#000000" points="226.2046,-219.4483 217.9282,-212.8338 220.2733,-223.1658 226.2046,-219.4483"/>
<text text-anchor="middle" x="302.3699" y="-235.8" font-family="Times,serif" font-size="14.00" fill="#000000">ProviderToCustomer</text>
</g>
<!-- 4&#45;&gt;5 -->
<g id="edge2" class="edge">
<title>4-&gt;5</title>
<path fill="none" stroke="#000000" d="M317.9615,-278.4298C333.7197,-273.2984 352.6606,-264.1483 362.2703,-248.4 378.0967,-222.4641 406.3724,-214.2923 345.2703,-142.8 329.6106,-124.4774 303.8959,-115.4803 282.4645,-111.0623"/>
<polygon fill="#000000" stroke="#000000" points="282.8126,-107.5688 272.3505,-109.2405 281.5716,-114.4579 282.8126,-107.5688"/>
<text text-anchor="middle" x="441.3699" y="-191.4" font-family="Times,serif" font-size="14.00" fill="#000000">ProviderToCustomer</text>
</g>
<!-- 5&#45;&gt;0 -->
<g id="edge7" class="edge">
<title>5-&gt;0</title>
<path fill="none" stroke="#000000" d="M222.098,-97.3957C214.0186,-94.3563 204.8313,-91.1643 196.2703,-88.8 154.7637,-77.3369 138.8448,-91.4725 101.0711,-70.8 88.5113,-63.9264 77.29,-52.7528 68.6933,-42.4504"/>
<polygon fill="#000000" stroke="#000000" points="71.334,-40.1471 62.3861,-34.4737 65.843,-44.4887 71.334,-40.1471"/>
<text text-anchor="middle" x="159.3699" y="-58.2" font-family="Times,serif" font-size="14.00" fill="#000000">ProviderToCustomer</text>
</g>
<!-- 5&#45;&gt;1 -->
<g id="edge6" class="edge">
<title>5-&gt;1</title>
<path fill="none" stroke="#000000" d="M261.9108,-121.2889C272.0993,-131.9811 281.8511,-146.8298 274.2703,-159.6 267.3308,-171.2899 255.1128,-179.4268 243.0602,-184.9667"/>
<polygon fill="#000000" stroke="#000000" points="241.4595,-181.8401 233.5338,-188.8711 244.1141,-188.3172 241.4595,-181.8401"/>
<text text-anchor="middle" x="308.919" y="-147" font-family="Times,serif" font-size="14.00" fill="#000000">PearToPear</text>
</g>
<!-- 5&#45;&gt;3 -->
<g id="edge8" class="edge">
<title>5-&gt;3</title>
<path fill="none" stroke="#000000" d="M232.8096,-90.778C225.9591,-79.8876 220.1283,-65.4381 227.0711,-54 234.5745,-41.6384 247.8579,-33.3258 260.794,-27.8351"/>
<polygon fill="#000000" stroke="#000000" points="262.3968,-30.9713 270.5172,-24.1661 259.9254,-24.422 262.3968,-30.9713"/>
<text text-anchor="middle" x="285.3699" y="-58.2" font-family="Times,serif" font-size="14.00" fill="#000000">ProviderToCustomer</text>
</g>
</g>
</svg>