<?xml version="1.0" encoding="UTF-8" standalone="no"?>
<!DOCTYPE svg PUBLIC "-//W3C//DTD SVG 1.1//EN" "http://www.w3.org/Graphics/SVG/1.1/DTD/svg11.dtd">
<!-- Generated by graphviz version 2.40.1 (20161225.0304)
 -->
<!-- Title: %0 Pages: 1 -->
<svg width="342pt" height="399pt" viewBox="0.00 0.00 342.20 399.20" xmlns="http://www.w3.org/2000/svg" xmlns:xlink="http://www.w3.org/1999/xlink">
<g id="graph0" class="graph" transform="scale(1 1) rotate(0) translate(4 395.2)">
<title>%0</title>
<polygon fill="#ffffff" stroke="transparent" points="-4,4 -4,-395.2 338.1992,-395.2 338.1992,4 -4,4"/>
<!-- 0 -->
<g id="node1" class="node">
<title>0</title>
<ellipse fill="none" stroke="#000000" cx="143" cy="-284.4" rx="27" ry="18"/>
<text text-anchor="middle" x="143" y="-280.2" font-family="Times,serif" font-size="14.00" fill="#000000">2</text>
</g>
<!-- 2 -->
<g id="node3" class="node">
<title>2</title>
<ellipse fill="none" stroke="#000000" cx="27" cy="-18" rx="27" ry="18"/>
<text text-anchor="middle" x="27" y="-13.8" font-family="Times,serif" font-size="14.00" fill="#000000">5</text>
</g>
<!-- 0&#45;&gt;2 -->
<g id="edge4" class="edge">
<title>0-&gt;2</title>
<path fill="none" stroke="#000000" d="M124.5514,-270.7548C98.3048,-250.0917 51.2178,-208.0925 31.8008,-159.6 16.98,-122.586 19.0029,-75.6754 22.4813,-46.2402"/>
<polygon fill="#000000" stroke="#000000" points="25.9629,-46.6088 23.8001,-36.2371 19.0229,-45.6938 25.9629,-46.6088"/>
<text text-anchor="middle" x="91.0996" y="-147" font-family="Times,serif" font-size="14.00" fill="#000000">ProviderToCustomer</text>
</g>
<!-- 3 -->
<g id="node4" class="node">
<title>3</title>
<ellipse fill="none" stroke="#000000" cx="163" cy="-106.8" rx="27" ry="18"/>
<text text-anchor="middle" x="163" y="-102.6" font-family="Times,serif" font-size="14.00" fill="#000000">3</text>
</g>
<!-- 0&#45;&gt;3 -->
<g id="edge3" class="edge">
<title>0-&gt;3</title>
<path fill="none" stroke="#000000" d="M144.0543,-266.2161C145.3874,-244.9276 147.9684,-208.6294 151.7026,-177.6 153.399,-163.5042 155.8265,-147.914 157.9968,-134.9595"/>
<polygon fill="#000000" stroke="#000000" points="161.5004,-135.2355 159.7377,-124.7883 154.6007,-134.0545 161.5004,-135.2355"/>
<text text-anchor="middle" x="183.6487" y="-191.4" font-family="Times,serif" font-size="14.00" fill="#000000">PearToPear</text>
</g>
<!-- 5 -->
<g id="node6" class="node">
<title>5</title>
<ellipse fill="none" stroke="#000000" cx="253" cy="-195.6" rx="27" ry="18"/>
<text text-anchor="middle" x="253" y="-191.4" font-family="Times,serif" font-size="14.00" fill="#000000">1</text>
</g>
<!-- 0&#45;&gt;5 -->
<g id="edge2" class="edge">
<title>0-&gt;5</title>
<path fill="none" stroke="#000000" d="M160.6734,-270.1327C178.8216,-255.4822 207.2362,-232.5439 227.751,-215.9828"/>
<polygon fill="#000000" stroke="#000000" points="230.1506,-218.5439 235.7331,-209.5391 225.7536,-213.0971 230.1506,-218.5439"/>
<text text-anchor="middle" x="266.0996" y="-235.8" font-family="Times,serif" font-size="14.00" fill="#000000">CustomerToProvider</text>
</g>
<!-- 1 -->
<g id="node2" class="node">
<title>1</title>
<ellipse fill="none" stroke="#000000" cx="184" cy="-18" rx="27" ry="18"/>
<text text-anchor="middle" x="184" y="-13.8" font-family="Times,serif" font-size="14.00" fill="#000000">6</text>
</g>
<!-- 3&#45;&gt;1 -->
<g id="edge7" class="edge">
<title>3-&gt;1</title>
<path fill="none" stroke="#000000" d="M167.2497,-88.83C170.153,-76.553 174.0588,-60.0372 177.3684,-46.0421"/>
<polygon fill="#000000" stroke="#000000" points="180.8612,-46.4804 179.7567,-35.9433 174.0491,-44.8693 180.8612,-46.4804"/>
<text text-anchor="middle" x="234.0996" y="-58.2" font-family="Times,serif" font-size="14.00" fill="#000000">ProviderToCustomer</text>
</g>
<!-- 3&#45;&gt;2 -->
<g id="edge6" class="edge">
<title>3-&gt;2</title>
<path fill="none" stroke="#000000" d="M135.7638,-104.7109C110.3545,-101.4039 72.8517,-92.8623 48.8008,-70.8 41.5017,-64.1044 36.5797,-54.5967 33.2909,-45.4902"/>
<polygon fill="#000000" stroke="#000000" points="36.6286,-44.4361 30.3281,-35.9182 29.9416,-46.506 36.6286,-44.4361"/>
<text text-anchor="middle" x="108.0996" y="-58.2" font-family="Times,serif" font-size="14.00" fill="#000000">ProviderToCustomer</text>
</g>
<!-- 4 -->
<g id="node5" class="node">
<title>4</title>
<ellipse fill="none" stroke="#000000" cx="143" cy="-373.2" rx="27" ry="18"/>
<text text-anchor="middle" x="143" y="-369" font-family="Times,serif" font-size="14.00" fill="#000000">4</text>
</g>
<!-- 4&#45;&gt;0 -->
<g id="edge1" class="edge">
<title>4-&gt;0</title>
<path fill="none" stroke="#000000" d="M143,-354.8006C143,-342.6949 143,-326.6076 143,-312.8674"/>
<polygon fill="#000000" stroke="#000000" points="146.5001,-312.472 143,-302.472 139.5001,-312.4721 146.5001,-312.472"/>
<text text-anchor="middle" x="202.0996" y="-324.6" font-family="Times,serif" font-size="14.00" fill="#000000">CustomerToProvider</text>
</g>
<!-- 5&#45;&gt;3 -->
<g id="edge5" class="edge">
<title>5-&gt;3</title>
<path fill="none" stroke="#000000" d="M237.7327,-180.5363C223.5102,-166.5034 202.1153,-145.3938 185.857,-129.3522"/>
<polygon fill="#000000" stroke="#000000" points="187.9188,-126.4696 178.3422,-121.9376 183.0023,-131.4525 187.9188,-126.4696"/>
<text text-anchor="middle" x="275.0996" y="-147" font-family="Times,serif" font-size="14.00" fill="#000000">ProviderToCustomer</text>
</g>
</g>
</svg>